<?xml version="1.0" standalone="no"?>
<!DOCTYPE svg PUBLIC "-//W3C//DTD SVG 20010904//EN"
 "http://www.w3.org/TR/2001/REC-SVG-20010904/DTD/svg10.dtd">
<svg version="1.0" xmlns="http://www.w3.org/2000/svg"
 width="2763.000000pt" height="1853.000000pt" viewBox="0 0 2763.000000 1853.000000"
 preserveAspectRatio="xMidYMid meet">

<g transform="translate(0.000000,1853.000000) scale(0.100000,-0.100000)"
fill="#000000" stroke="none">
<path d="M13763 18523 c-34 -7 -79 -59 -97 -115 -30 -94 -39 -187 -33 -358 6
-178 18 -258 67 -450 25 -100 33 -153 37 -265 5 -129 3 -152 -26 -295 -58
-286 -140 -538 -162 -498 -12 21 -29 225 -29 355 0 196 -36 351 -107 461 -20
31 -114 155 -210 275 -174 216 -207 247 -236 218 -22 -22 -20 -189 3 -342 18
-113 21 -169 17 -259 -9 -196 -30 -269 -245 -890 -73 -209 -95 -324 -96 -495
0 -170 14 -251 94 -555 62 -234 97 -406 86 -417 -22 -22 -148 133 -279 342
-118 189 -208 373 -242 495 -28 97 -30 117 -29 270 0 91 6 206 12 255 40 306
84 921 86 1192 1 200 0 213 -20 240 -24 32 -81 55 -105 42 -26 -13 -38 -62
-55 -209 -24 -219 -61 -348 -169 -601 -160 -373 -241 -707 -310 -1289 -48
-408 -56 -440 -96 -392 -32 40 -54 251 -64 627 -11 411 -29 565 -65 565 -26 0
-69 -42 -85 -82 -10 -27 -20 -94 -26 -178 -11 -161 -26 -217 -86 -332 -49 -94
-163 -252 -188 -262 -33 -12 -31 46 10 264 51 277 32 703 -41 927 -45 139
-115 253 -155 253 -35 0 -43 -45 -50 -305 -8 -278 -12 -302 -89 -506 -62 -164
-134 -406 -181 -614 -76 -335 -151 -619 -207 -790 -51 -156 -114 -295 -228
-501 l-28 -50 83 -94 c67 -76 94 -117 141 -215 95 -195 154 -399 136 -468 -16
-64 -121 -18 -260 114 -293 277 -467 678 -466 1074 0 114 13 198 52 355 20 81
32 151 32 200 l1 75 -32 3 c-28 3 -40 -4 -83 -47 -97 -97 -257 -371 -370 -636
-76 -177 -155 -420 -191 -585 -34 -160 -71 -285 -92 -314 -21 -28 -48 -14
-132 70 -95 95 -195 219 -248 309 -42 69 -42 70 -41 165 0 73 9 133 39 260 21
91 40 180 43 199 6 46 -14 60 -73 51 -52 -8 -95 -35 -111 -71 -50 -108 -77
-154 -141 -238 -93 -121 -188 -261 -220 -326 -114 -224 -156 -515 -134 -929
10 -192 38 -542 56 -702 l6 -52 -163 -4 c-118 -4 -189 -11 -257 -27 -52 -12
-100 -20 -106 -17 -6 2 -17 44 -25 93 -36 245 -140 477 -283 630 -65 69 -101
93 -140 93 -58 0 -67 -60 -32 -210 64 -274 22 -509 -180 -1005 -109 -269 -152
-500 -142 -755 7 -157 24 -253 83 -450 21 -73 38 -156 41 -201 5 -69 3 -82
-27 -148 -17 -41 -48 -124 -67 -185 -20 -61 -42 -117 -49 -125 -30 -33 -92 43
-243 297 -110 186 -169 264 -216 286 -44 21 -83 11 -105 -27 -21 -37 -3 -111
55 -234 102 -212 169 -476 185 -725 6 -103 16 -168 35 -233 51 -174 169 -371
290 -483 160 -148 413 -269 607 -290 109 -12 186 -49 358 -172 184 -132 250
-161 250 -109 0 11 -16 60 -36 111 -31 80 -34 93 -21 106 16 16 29 13 197 -46
117 -42 221 -52 530 -52 386 0 513 -20 686 -105 122 -60 207 -127 404 -319
262 -256 497 -443 671 -536 120 -64 233 -70 696 -40 203 14 232 -2 148 -79
-55 -51 -224 -135 -303 -152 -70 -14 -167 -2 -369 46 -341 82 -516 182 -1002
573 -185 149 -353 261 -452 303 -178 73 -465 130 -669 132 -153 2 -195 -9
-195 -53 0 -31 50 -61 163 -95 107 -33 245 -93 323 -141 79 -48 181 -143 230
-216 53 -77 180 -237 263 -328 78 -86 126 -156 126 -181 0 -10 -7 -24 -14 -32
-29 -29 -292 -52 -711 -63 -330 -8 -450 3 -605 56 -119 42 -166 48 -192 28
-24 -20 -27 -42 -11 -76 31 -64 184 -139 372 -183 115 -26 207 -57 221 -74 39
-46 -85 -110 -253 -130 -63 -7 -123 -17 -133 -23 -65 -35 -78 -107 -27 -152
44 -40 106 -50 363 -60 124 -5 235 -12 248 -16 18 -5 22 -13 22 -46 0 -45 -22
-71 -94 -107 -65 -34 -107 -81 -113 -128 -5 -35 -2 -43 22 -61 33 -26 50 -27
225 -7 222 26 467 79 596 130 62 25 119 45 125 45 20 0 111 55 306 182 100 65
212 133 250 151 l68 32 193 3 c201 4 336 -8 404 -35 70 -28 45 -45 -213 -143
-101 -39 -204 -80 -229 -91 -83 -38 -264 -167 -380 -270 -135 -119 -255 -211
-321 -245 -57 -29 -91 -69 -87 -103 2 -20 12 -29 43 -40 33 -11 74 -11 235 -2
305 17 468 59 723 183 153 75 176 88 432 246 311 193 455 243 455 158 0 -35
-68 -138 -160 -242 -239 -270 -348 -419 -429 -581 -126 -254 -75 -330 125
-188 87 63 190 109 309 140 241 64 339 125 637 402 162 150 246 187 433 187
179 1 296 -45 411 -159 109 -109 154 -218 154 -379 0 -113 -20 -161 -83 -197
-40 -23 -50 -24 -207 -23 -91 0 -237 2 -325 4 -190 6 -203 3 -490 -92 -345
-114 -488 -145 -770 -167 -71 -6 -220 -18 -330 -26 -110 -9 -231 -23 -270 -31
-81 -16 -282 -18 -515 -4 -688 41 -729 39 -1027 -35 -268 -66 -303 -69 -803
-59 -666 14 -900 11 -990 -9 -101 -23 -188 -66 -228 -111 -34 -40 -39 -55 -20
-74 19 -19 79 -14 227 15 124 25 155 28 356 27 239 0 400 -12 685 -50 287 -38
472 -83 517 -126 30 -28 29 -43 -3 -73 -36 -34 -114 -61 -286 -100 -201 -46
-263 -81 -256 -141 5 -44 38 -56 138 -50 202 12 480 132 657 283 104 88 166
116 266 121 97 5 144 -7 263 -65 109 -53 144 -56 232 -19 81 34 187 49 302 44
139 -7 213 -31 271 -87 51 -50 69 -103 69 -199 0 -60 27 -114 61 -123 17 -4
47 0 80 13 133 48 143 50 225 45 156 -9 208 -68 123 -140 -94 -81 -297 -161
-505 -198 -94 -17 -160 -22 -314 -23 -218 0 -271 7 -430 61 -90 31 -122 37
-223 41 -132 5 -192 -6 -238 -46 -21 -17 -29 -33 -29 -58 0 -55 27 -65 198
-75 151 -8 226 -23 353 -72 123 -47 325 -60 530 -33 117 16 188 33 329 77 133
43 277 74 475 103 194 28 275 51 360 101 180 106 276 130 474 122 132 -6 164
-12 320 -56 92 -26 235 -39 411 -39 161 -1 281 -22 498 -88 182 -56 267 -74
341 -74 146 0 96 97 -125 242 -55 37 -106 74 -113 82 -20 24 -6 45 45 67 67
30 192 48 431 60 466 24 657 -23 1008 -251 77 -49 155 -94 173 -100 46 -12 76
1 143 65 80 76 129 89 314 82 198 -8 357 -56 371 -114 3 -12 40 -55 82 -95
166 -158 331 -259 457 -281 54 -9 66 -8 89 6 57 38 27 110 -107 255 -111 121
-112 138 -13 257 69 83 81 113 59 145 -18 25 -83 27 -180 4 -138 -33 -416 -3
-523 57 -49 27 -72 68 -54 97 32 50 305 78 669 69 296 -8 336 -14 458 -77 87
-44 105 -50 160 -50 110 0 489 99 765 200 172 63 240 77 282 60 33 -14 64 -65
94 -156 l17 -51 472 -7 c478 -6 767 -19 845 -37 67 -15 117 4 221 81 51 38
109 75 129 82 26 9 109 13 285 13 247 0 249 0 267 23 37 46 -15 92 -120 107
-51 8 -90 29 -90 49 0 23 71 78 145 112 159 73 409 134 630 154 346 32 455 56
463 103 5 27 -58 84 -109 97 -29 8 -87 11 -174 7 -155 -7 -320 -39 -822 -161
-432 -105 -533 -126 -654 -133 -117 -7 -156 4 -218 62 -25 23 -61 50 -79 59
-39 20 -205 35 -389 36 -179 0 -254 17 -408 94 -71 36 -157 71 -190 78 -71 15
-506 14 -1064 -2 -610 -17 -708 -29 -888 -109 -246 -109 -623 -165 -853 -127
-188 32 -384 106 -465 177 -41 36 -44 64 -19 150 19 64 107 239 140 279 36 42
73 53 167 48 107 -5 182 -40 295 -134 194 -162 339 -211 411 -140 23 24 24 27
12 68 -7 24 -35 88 -62 142 -27 55 -49 112 -49 127 0 32 15 36 222 69 250 39
342 105 257 186 -44 41 -70 99 -76 164 -5 50 -3 59 21 87 67 80 317 96 461 29
139 -64 389 -303 411 -391 11 -48 42 -103 64 -115 24 -13 62 2 171 66 42 24
106 51 142 60 61 15 79 15 234 0 228 -22 315 -7 345 59 22 49 -11 76 -133 106
-46 12 -124 40 -174 63 -242 114 -583 356 -631 447 -30 58 -8 123 58 172 96
72 256 57 331 -32 13 -16 34 -61 46 -99 42 -140 112 -162 308 -97 124 42 228
53 327 36 146 -25 260 -90 353 -199 69 -82 114 -119 164 -134 65 -19 108 1
199 93 176 177 371 221 870 195 197 -10 206 -7 204 70 -1 59 -29 86 -112 110
-80 23 -124 47 -160 88 -41 46 -58 105 -46 154 14 57 37 64 184 58 406 -18
434 -18 527 -2 121 21 197 50 239 93 31 30 35 40 32 76 -3 38 -6 42 -33 46
-16 2 -73 -2 -125 -9 -160 -20 -274 13 -357 103 -47 50 -68 89 -114 204 -17
43 -32 79 -34 81 -1 2 -70 -30 -151 -71 -168 -84 -250 -115 -395 -152 -289
-73 -602 -83 -742 -23 -62 27 -107 85 -107 139 0 111 155 172 475 189 177 10
235 22 370 75 151 60 298 150 378 231 62 63 119 177 125 249 4 51 3 55 -22 66
-36 17 -87 -8 -173 -82 -168 -145 -364 -198 -493 -131 -71 36 -93 76 -87 154
6 66 54 166 100 204 40 33 111 68 169 82 115 29 213 34 718 41 604 9 584 6
804 96 149 60 253 125 352 218 175 165 269 370 321 699 15 93 18 177 18 473 0
397 -2 415 -54 415 -16 0 -39 -9 -52 -19 -24 -19 -24 -23 -25 -198 -2 -154 -5
-187 -24 -248 -46 -143 -122 -267 -223 -362 -82 -77 -166 -124 -282 -159 -83
-25 -104 -27 -270 -28 -143 0 -206 4 -306 21 -194 34 -389 47 -513 34 -128
-14 -156 -7 -156 42 0 52 50 117 208 272 139 135 201 213 187 235 -32 52 -197
52 -353 1 -50 -17 -99 -31 -107 -31 -22 0 -19 47 7 82 56 80 293 220 515 304
63 23 133 54 156 67 67 40 169 140 224 219 64 93 83 131 122 248 33 100 68
171 88 177 32 11 89 -204 99 -378 13 -204 -32 -457 -116 -654 -104 -244 -113
-270 -118 -331 -4 -54 -2 -63 15 -72 23 -13 33 -7 144 85 162 134 296 361 404
687 78 238 136 562 137 771 1 127 -7 163 -108 482 -148 470 -146 444 -64 993
44 300 57 473 39 530 -10 32 -22 49 -43 59 -70 33 -109 -52 -156 -341 -42
-261 -78 -378 -134 -446 -16 -17 -34 -32 -42 -32 -23 0 -52 57 -85 165 -68
220 -82 257 -106 286 -36 42 -62 36 -90 -21 -12 -25 -29 -85 -38 -135 -69
-392 -109 -518 -231 -720 -163 -273 -372 -511 -428 -489 -29 11 -18 61 58 262
129 344 166 486 187 723 14 160 7 443 -16 614 -44 328 -106 520 -260 800 -134
244 -191 524 -150 735 50 259 52 339 13 364 -40 25 -122 -78 -223 -280 -80
-161 -112 -252 -125 -359 -6 -45 -9 -252 -8 -466 2 -395 -4 -469 -37 -469 -8
0 -15 1 -15 3 0 19 -110 244 -155 317 -32 52 -86 141 -121 198 -158 258 -234
594 -206 900 7 70 26 186 42 259 72 328 65 438 -30 435 -92 -2 -252 -169 -365
-380 -16 -29 -44 -67 -63 -83 -33 -29 -35 -30 -54 -12 -27 24 -76 132 -139
303 -94 257 -281 603 -382 708 -34 34 -48 42 -78 42 -85 0 -98 -94 -34 -265
115 -311 125 -377 81 -560 -48 -198 -133 -425 -161 -425 -22 0 -43 70 -75 249
-61 339 -147 478 -530 861 -336 336 -443 500 -520 802 -13 51 -49 98 -75 98
-25 0 -63 -44 -74 -87 -27 -101 -55 -335 -55 -468 -1 -162 2 -175 119 -480
110 -289 125 -367 125 -665 0 -207 -14 -389 -36 -473 -27 -104 -150 -324 -196
-348 -51 -28 -64 24 -73 301 -7 220 -17 330 -45 476 -43 220 -113 417 -223
623 -201 377 -224 443 -234 656 -6 148 8 287 38 379 11 34 65 153 119 266 108
224 131 290 109 316 -58 70 -306 -150 -529 -467 -130 -186 -174 -240 -181
-227 -4 7 -21 96 -38 198 -53 311 -114 521 -198 683 -36 67 -91 127 -118 127
-23 0 -53 -35 -64 -77 -18 -65 -13 -190 14 -308 14 -62 25 -141 25 -181 0
-105 -33 -283 -79 -422 -45 -136 -144 -339 -194 -397 -55 -64 -60 -49 -52 159
8 207 -1 318 -45 537 -43 212 -88 342 -174 494 -189 334 -236 440 -236 532 0
33 14 112 32 186 l33 129 -24 19 c-22 18 -79 23 -138 12z m1027 -1980 c-1
-104 -5 -300 -10 -438 -20 -553 22 -835 194 -1293 139 -374 198 -624 199 -847
1 -110 -3 -130 -36 -242 -73 -245 -175 -473 -292 -651 -60 -93 -95 -165 -95
-198 0 -25 39 -54 73 -54 84 0 176 78 423 362 225 257 379 459 512 670 120
190 191 279 347 433 153 151 209 228 270 374 123 291 149 591 85 982 -21 128
-26 249 -12 249 34 0 201 -166 267 -265 97 -146 189 -376 239 -595 41 -182 76
-394 76 -462 0 -105 -58 -190 -138 -203 -71 -12 -83 -16 -102 -35 -40 -40 -24
-112 55 -237 68 -108 82 -156 66 -229 -28 -123 -126 -281 -285 -460 -211 -238
-432 -604 -526 -869 -87 -249 -100 -380 -80 -839 12 -286 9 -409 -11 -375 -16
30 -78 285 -98 404 -35 211 -43 312 -48 672 l-6 352 133 278 c290 606 325 704
325 918 0 136 -13 178 -56 183 -45 5 -77 -33 -158 -197 -143 -285 -224 -389
-590 -764 -351 -361 -490 -532 -581 -715 -58 -117 -82 -203 -87 -320 -7 -134
8 -223 67 -402 84 -251 116 -467 108 -738 -3 -115 -9 -167 -21 -194 -44 -102
-93 -10 -197 372 -127 469 -244 774 -362 941 l-43 62 1 121 c2 248 72 520 273
1059 226 604 222 793 -31 1477 -98 266 -116 337 -129 519 -11 172 -20 195 -70
199 -30 3 -41 -2 -58 -24 -46 -59 -72 -210 -72 -424 0 -118 4 -160 22 -225 64
-234 -19 -590 -209 -908 -112 -186 -207 -403 -281 -647 -35 -112 -74 -190 -95
-190 -37 0 -88 100 -125 246 -42 164 -54 272 -55 479 -1 180 1 207 21 270 41
129 91 187 228 260 167 90 182 153 70 284 -82 96 -143 263 -186 507 -18 101
-23 168 -24 309 0 193 9 242 48 270 30 21 94 20 106 -2 15 -29 57 -211 115
-502 59 -292 83 -363 136 -401 41 -29 84 -26 110 8 33 41 24 150 -20 257 -32
76 -34 86 -34 210 -2 314 129 704 304 910 62 72 143 186 195 275 74 125 137
220 146 220 5 0 9 -82 9 -187z m457 -582 c116 -84 216 -285 293 -586 62 -243
75 -347 75 -610 0 -196 -4 -249 -24 -360 -26 -148 -63 -273 -90 -306 l-18 -23
-18 27 c-60 92 -260 798 -343 1212 -71 354 -68 569 10 652 29 31 67 29 115 -6z
m-2022 -261 c50 -47 163 -301 265 -595 79 -230 97 -355 65 -461 -8 -28 -38
-88 -66 -135 -105 -171 -123 -231 -144 -479 -23 -264 -41 -352 -75 -370 -31
-17 -48 23 -59 140 -6 58 -20 140 -31 182 -44 167 -95 839 -107 1414 l-6 301
24 17 c33 24 102 16 134 -14z m-1079 -241 c65 -40 153 -185 192 -315 15 -48
43 -102 89 -170 159 -235 188 -282 238 -383 97 -194 127 -327 123 -533 l-3
-127 -90 101 c-49 55 -109 125 -132 156 -58 77 -135 230 -168 332 -49 152
-105 243 -163 267 -28 12 -37 12 -65 -2 -37 -17 -67 -61 -67 -97 0 -12 11 -46
24 -74 35 -76 46 -141 46 -277 0 -146 -18 -236 -65 -336 -89 -188 -380 -621
-417 -621 -18 0 1 85 57 254 104 314 115 405 125 1026 5 330 12 522 20 555 19
82 76 189 120 229 47 42 85 47 136 15z m-794 -299 c38 -80 114 -295 143 -407
75 -289 105 -641 70 -838 -11 -66 -155 -519 -162 -512 -1 2 -11 149 -23 327
-30 474 -61 753 -115 1045 -24 130 -30 257 -15 312 21 77 49 135 63 131 6 -2
24 -28 39 -58z m6458 -91 c40 -103 72 -240 110 -464 34 -204 64 -322 87 -347
9 -10 29 -18 44 -18 65 0 114 139 139 395 14 143 36 249 56 266 22 18 39 -36
64 -201 40 -274 163 -574 360 -885 75 -118 107 -182 125 -251 41 -159 44 -657
5 -949 -32 -241 -26 -305 32 -333 22 -10 33 -10 61 2 111 46 216 343 352 996
50 238 82 351 102 358 17 5 60 -43 89 -100 101 -199 162 -732 123 -1086 -47
-443 -184 -874 -327 -1033 -67 -75 -143 -106 -177 -73 -25 25 -15 76 40 217
53 137 127 386 150 511 19 100 11 142 -32 176 -62 48 -141 0 -162 -98 -6 -29
-11 -61 -11 -71 0 -26 -162 -346 -270 -536 -172 -300 -320 -505 -364 -505 -17
0 -22 32 -31 186 -7 129 10 311 41 433 28 110 105 274 189 401 92 139 110 206
66 242 -52 41 -105 15 -300 -152 -112 -95 -176 -139 -186 -128 -9 8 19 159 76
423 84 382 101 496 106 712 6 222 -4 317 -49 441 -32 89 -96 172 -132 172 -10
0 -31 -13 -47 -29 -35 -35 -38 -81 -13 -204 25 -123 15 -450 -19 -607 -29
-137 -48 -180 -119 -282 -154 -221 -484 -568 -540 -568 -15 0 -8 51 11 88 11
21 42 71 70 112 28 41 56 90 61 111 6 23 38 66 86 119 87 95 128 173 165 315
21 79 24 112 23 275 0 222 -16 310 -100 558 -69 204 -74 249 -44 420 27 150
22 192 -22 225 -52 38 -108 0 -159 -108 -16 -33 -69 -200 -118 -371 -91 -316
-118 -395 -148 -440 -14 -22 -18 -23 -30 -11 -10 10 -17 57 -24 163 -12 210
-26 325 -51 429 -12 50 -22 117 -22 150 -1 56 2 65 51 135 28 41 103 174 165
295 117 226 207 380 261 450 60 76 141 164 148 159 4 -2 22 -40 39 -85z
m-6968 -205 c11 -38 59 -194 108 -346 127 -396 141 -481 161 -964 13 -330 9
-668 -7 -684 -9 -9 -19 -8 -40 3 -39 20 -66 50 -108 121 -59 98 -93 202 -137
417 -67 330 -121 498 -258 798 -34 74 -61 140 -61 147 0 20 236 490 272 542
16 24 35 41 40 40 6 -2 20 -35 30 -74z m-1238 -635 c36 -29 81 -121 160 -332
90 -238 154 -386 232 -537 60 -115 101 -179 249 -394 92 -133 120 -242 73
-287 -20 -18 -31 -20 -84 -15 -34 4 -120 23 -190 42 -350 98 -409 109 -434 79
-24 -29 -19 -369 8 -570 65 -476 148 -820 243 -1011 50 -99 65 -170 45 -202
-22 -37 -99 4 -217 116 -83 78 -131 143 -147 197 -24 86 -194 217 -259 200
-64 -16 -79 -64 -43 -135 11 -21 53 -89 93 -152 127 -195 200 -329 337 -621
146 -310 198 -395 339 -552 158 -176 326 -317 566 -473 192 -125 291 -197 299
-217 3 -9 -3 -24 -14 -35 -46 -46 -282 -14 -461 64 -124 53 -184 93 -286 190
-123 117 -207 230 -289 390 -37 72 -78 140 -92 153 -36 33 -75 30 -121 -12
-70 -64 -66 -94 48 -351 43 -99 98 -240 121 -314 70 -226 168 -403 317 -575
97 -112 133 -164 133 -193 0 -21 -3 -23 -27 -18 -69 16 -152 68 -201 124 -120
140 -220 323 -247 452 -12 61 -21 81 -50 110 -28 28 -43 35 -75 35 -100 0
-100 -69 -2 -360 68 -202 112 -353 112 -383 0 -25 -62 -7 -198 56 -183 86
-320 134 -552 197 -280 76 -348 99 -470 161 -173 88 -328 226 -428 382 -52 82
-128 248 -146 318 -21 81 -21 163 0 192 13 19 22 22 47 16 38 -8 109 -42 180
-88 98 -63 235 -125 398 -181 89 -31 181 -66 203 -77 143 -72 251 -181 431
-433 92 -129 101 -137 139 -130 75 13 83 63 37 226 -95 336 -153 437 -410 718
-339 370 -431 530 -540 940 -60 224 -92 300 -134 323 -31 16 -71 -35 -99 -124
-21 -66 -23 -92 -22 -273 0 -236 12 -303 99 -559 69 -203 72 -266 16 -266 -44
0 -116 53 -258 191 -144 139 -183 169 -225 169 -56 0 -85 -69 -122 -290 -45
-266 -56 -433 -42 -643 9 -130 4 -147 -46 -147 -42 0 -98 26 -138 65 -19 19
-48 39 -63 44 -42 16 -109 13 -136 -5 -21 -15 -23 -22 -19 -78 3 -35 24 -116
47 -184 23 -67 41 -132 39 -145 -9 -65 -112 -5 -284 167 -109 109 -165 185
-224 305 -50 99 -62 149 -58 244 l3 78 96 -66 c66 -46 108 -68 136 -72 38 -5
42 -3 57 25 14 27 16 67 14 259 -3 223 -3 229 20 269 39 68 66 78 192 70 119
-8 150 0 169 41 18 38 -3 90 -71 174 -111 138 -227 409 -280 651 -29 134 -32
405 -5 511 23 92 52 147 78 147 25 0 42 -39 69 -162 66 -300 169 -532 329
-743 42 -55 108 -147 146 -205 56 -84 79 -109 113 -127 53 -26 85 -19 90 20 2
17 -25 85 -73 189 -42 89 -90 201 -106 248 -73 218 -77 461 -13 709 36 139 81
226 146 287 101 95 194 124 266 84 52 -30 75 -75 111 -220 70 -283 154 -412
528 -807 204 -217 304 -345 336 -434 9 -24 26 -70 38 -102 26 -71 75 -137 111
-149 45 -15 82 9 86 56 10 117 -170 552 -362 876 -108 180 -170 308 -191 385
-48 186 -45 575 5 575 16 0 69 -64 101 -122 111 -199 285 -413 397 -490 58
-40 112 -48 141 -19 39 39 26 89 -40 154 -126 123 -270 605 -286 953 -6 144 5
220 38 250 18 16 21 16 35 2 9 -8 19 -45 24 -83 6 -48 15 -74 31 -91 30 -32
83 -33 103 -1 23 35 35 186 46 567 11 402 24 586 45 657 18 62 69 139 104 158
34 19 34 19 65 -6z m-913 -606 c206 -208 239 -250 239 -305 0 -51 -24 -97 -52
-98 -17 0 -38 34 -38 62 0 37 -26 94 -47 102 -45 18 -149 -180 -248 -475 -36
-107 -75 -210 -87 -229 l-20 -34 -18 22 c-29 35 -35 115 -34 437 0 282 12 506
35 655 16 107 15 105 57 71 20 -16 116 -110 213 -208z m3335 -231 c-4 -30 -27
-134 -51 -231 -77 -306 -95 -447 -94 -756 0 -284 22 -400 101 -521 45 -70 180
-201 348 -341 159 -131 269 -242 289 -291 9 -22 10 -39 3 -59 -8 -25 -14 -28
-48 -27 -21 0 -84 18 -139 38 -54 21 -129 44 -165 52 -271 57 -690 -5 -785
-117 -33 -40 -32 -77 4 -126 57 -79 180 -150 349 -202 283 -88 488 -251 382
-306 -59 -31 -226 -16 -560 51 -385 76 -607 162 -828 321 -289 207 -650 694
-567 763 15 12 24 11 68 -13 29 -15 84 -56 123 -90 120 -105 324 -208 578
-293 199 -66 293 -69 316 -8 21 53 -20 123 -164 281 -229 251 -326 496 -326
821 0 156 -24 177 -205 177 -131 0 -167 11 -207 66 -25 33 -34 99 -18 129 11
20 17 22 59 17 114 -15 181 -58 181 -116 0 -39 15 -40 66 -1 101 76 154 24
339 -330 129 -248 225 -390 318 -473 40 -36 91 -91 113 -122 96 -137 150 -178
201 -153 15 7 30 25 34 39 4 15 -1 110 -11 210 -83 836 -37 1212 195 1569 81
126 112 139 101 42z m244 -25 c11 -24 33 -113 50 -198 17 -85 41 -189 55 -232
116 -363 416 -696 893 -992 312 -193 481 -332 823 -674 327 -327 395 -417 461
-611 53 -158 73 -286 72 -475 0 -195 -19 -297 -79 -420 -57 -119 -155 -227
-176 -194 -5 8 -6 139 -3 294 9 359 -8 491 -87 695 -99 257 -293 443 -380 364
-31 -28 -23 -123 14 -162 57 -59 75 -163 57 -337 -27 -271 -96 -476 -224 -669
-87 -131 -185 -317 -236 -451 -28 -73 -41 -127 -55 -226 -13 -90 -57 -89 -89
2 -16 42 -20 81 -20 179 0 149 24 252 108 475 30 77 76 199 104 270 90 236 97
276 96 540 -1 355 -24 457 -149 685 -112 203 -213 330 -263 330 -7 0 -24 -11
-37 -25 -36 -35 -32 -78 21 -212 77 -194 96 -285 96 -448 0 -185 -33 -385 -63
-385 -12 0 -55 121 -93 265 -114 430 -166 586 -227 684 -100 160 -321 454
-414 551 -103 107 -265 392 -320 563 -50 157 -60 229 -60 427 0 161 3 197 23
276 24 92 53 154 72 154 6 0 20 -20 30 -43z m4676 17 c13 -51 -4 -207 -31
-294 -39 -121 -97 -265 -154 -378 -154 -307 -281 -689 -281 -845 0 -55 7 -75
31 -88 33 -17 93 25 222 155 152 155 181 171 302 170 85 0 135 -13 135 -34 0
-16 -102 -121 -220 -225 -130 -115 -221 -224 -295 -353 -79 -136 -122 -239
-206 -493 -96 -295 -116 -336 -133 -276 -4 12 -11 139 -16 282 -11 285 -33
545 -57 670 -23 126 -29 410 -9 525 52 300 212 625 493 1000 74 98 180 210
199 210 8 0 17 -12 20 -26z m3284 -1794 c58 -31 74 -225 28 -337 -80 -193
-258 -362 -692 -663 -194 -134 -386 -288 -491 -394 -178 -180 -416 -595 -403
-703 7 -59 107 -68 155 -15 13 15 44 51 70 80 89 102 284 226 345 220 30 -3
33 -6 36 -42 5 -54 -28 -154 -91 -276 -70 -138 -128 -226 -230 -352 -116 -144
-213 -275 -292 -398 -94 -146 -218 -308 -321 -420 -123 -134 -212 -256 -284
-390 -35 -63 -83 -146 -108 -183 -91 -137 -251 -271 -410 -344 -169 -78 -443
-163 -527 -163 -120 0 -28 133 152 220 282 137 581 410 771 705 83 128 189
272 262 355 194 222 328 447 385 644 43 152 27 270 -43 311 -37 23 -52 53 -52
109 0 195 292 666 704 1136 108 124 145 214 100 247 -47 36 -168 -15 -338
-140 -254 -188 -319 -178 -122 18 182 182 348 287 581 371 195 70 584 270 719
370 65 48 68 49 96 34z m-2860 -165 c14 -17 10 -50 -30 -225 -16 -69 -36 -181
-44 -250 -15 -122 -20 -177 -51 -566 -24 -287 -39 -350 -130 -529 -78 -154
-141 -256 -162 -263 -24 -7 -26 76 -9 387 24 462 52 697 102 854 31 101 31
141 -1 172 -40 41 -71 33 -135 -32 -98 -102 -183 -271 -215 -428 -55 -267
-271 -788 -371 -895 -57 -61 -167 -136 -270 -185 -248 -118 -937 -381 -1088
-415 l-38 -8 5 40 c16 120 285 554 468 754 72 80 204 255 274 364 27 41 95
165 153 275 57 110 116 220 130 245 l27 45 3 -34 c5 -45 -32 -214 -70 -320
-39 -111 -116 -265 -183 -366 -29 -44 -105 -136 -169 -205 -120 -130 -180
-208 -191 -252 -8 -33 16 -58 57 -58 84 0 412 144 583 257 195 128 310 283
515 693 185 369 282 505 515 721 159 147 274 237 306 239 4 0 12 -7 19 -15z
m714 -122 c20 -64 28 -206 33 -550 8 -546 -8 -722 -77 -885 -68 -160 -184
-290 -340 -384 -52 -31 -133 -86 -180 -122 -108 -84 -391 -366 -413 -412 -34
-74 19 -96 258 -110 271 -15 335 1 500 119 189 136 300 199 330 187 50 -19
-45 -242 -174 -411 -128 -168 -685 -661 -829 -734 -114 -58 -97 33 67 354 85
166 129 281 118 309 -18 46 -83 38 -207 -24 -207 -105 -455 -294 -749 -573
-163 -155 -311 -273 -385 -308 -182 -86 -412 -75 -505 25 l-23 25 33 20 c56
35 137 61 275 91 290 63 456 143 689 335 165 136 295 284 295 337 0 30 -36 58
-75 58 -49 0 -89 -22 -112 -63 -48 -81 -354 -228 -612 -293 -95 -24 -201 -32
-201 -14 0 16 89 71 274 168 99 51 212 114 250 139 192 123 372 297 494 475
86 125 152 191 302 298 244 175 397 328 535 535 167 250 263 529 310 900 18
148 51 351 66 410 6 22 15 57 20 78 10 40 24 48 33 20z m-2587 -164 c30 -59
61 -202 69 -320 11 -162 -34 -325 -162 -580 -107 -216 -212 -378 -334 -523
-318 -376 -519 -650 -713 -970 -39 -66 -78 -122 -84 -124 -18 -5 -17 93 2 203
36 205 134 364 536 871 504 637 564 759 604 1239 15 178 21 229 32 248 10 16
29 0 50 -44z m-5353 -423 c315 -163 434 -235 421 -256 -2 -4 -34 -10 -71 -13
-73 -7 -114 -27 -114 -56 0 -32 62 -113 136 -176 39 -33 124 -103 190 -157 65
-53 164 -136 219 -185 121 -107 273 -226 458 -358 329 -236 328 -335 -2 -170
-283 142 -725 480 -1041 795 -175 175 -268 291 -330 413 -72 143 -107 267 -74
267 4 0 98 -47 208 -104z m9931 -1396 c77 -5 250 -11 385 -15 303 -7 383 -13
406 -30 17 -12 17 -15 -11 -55 -48 -69 -205 -194 -313 -249 -24 -12 -78 -31
-120 -43 -69 -18 -122 -21 -488 -28 -416 -9 -596 -20 -727 -45 -40 -8 -107
-17 -150 -21 -71 -6 -77 -5 -77 12 0 70 378 401 519 454 104 40 220 44 576 20z
m-9989 -79 c21 -16 71 -56 109 -90 95 -83 206 -159 258 -176 23 -8 141 -32
262 -54 394 -71 574 -152 769 -344 193 -191 274 -393 381 -952 42 -215 75
-329 111 -382 29 -44 31 -69 3 -83 -53 -29 -150 71 -242 248 -96 187 -141 336
-156 524 -14 174 -67 294 -186 425 -97 108 -294 225 -480 287 -78 26 -122 34
-293 55 -190 23 -334 142 -527 431 -93 140 -96 175 -9 111z m2974 -844 c30
-24 115 -100 188 -168 283 -265 350 -324 447 -397 55 -41 101 -79 103 -86 1
-6 -29 -139 -67 -296 -38 -157 -74 -310 -80 -340 -6 -31 -20 -70 -31 -88 l-20
-33 -31 18 c-110 64 -391 363 -496 528 -68 107 -106 340 -107 655 -1 150 2
211 12 228 7 12 16 22 20 22 4 0 32 -20 62 -43z m3846 -612 c25 -38 14 -103
-27 -160 -19 -26 -81 -85 -139 -130 -182 -143 -288 -268 -330 -390 -20 -55
-21 -73 -15 -216 l7 -156 -28 -32 c-24 -26 -41 -34 -94 -42 -67 -11 -171 -5
-202 12 -26 14 -23 79 7 180 13 46 43 149 65 229 59 206 64 219 125 293 90
109 357 329 486 401 78 43 122 47 145 11z m-2510 -297 l37 -33 387 0 c404 0
420 -2 420 -43 0 -29 -51 -81 -162 -165 -157 -118 -221 -148 -673 -313 -297
-108 -282 -104 -310 -72 -76 88 -10 435 113 596 54 71 128 82 188 30z m-1789
-23 c12 -22 34 -83 49 -135 15 -52 38 -119 51 -147 29 -63 132 -175 290 -315
255 -226 330 -355 347 -598 8 -110 -6 -247 -28 -268 -14 -15 -18 -14 -43 4
-16 11 -48 54 -72 95 -89 152 -122 190 -382 449 -150 149 -278 285 -292 310
-84 149 -88 520 -6 624 29 37 58 31 86 -19z m3054 -516 c19 -19 21 -29 16 -77
-23 -223 -309 -468 -683 -587 -307 -97 -378 -126 -504 -205 -86 -54 -108 -59
-132 -31 -29 37 -42 99 -42 206 0 156 44 236 161 298 79 41 144 59 336 93 216
38 319 78 502 194 199 126 298 157 346 109z m-1463 -1620 c18 -34 9 -135 -17
-187 -33 -64 -76 -107 -167 -168 -184 -123 -602 -282 -578 -221 10 27 106 90
241 159 164 83 244 140 344 245 71 74 109 133 109 167 0 16 29 37 45 32 6 -1
16 -13 23 -27z m153 -324 c17 -30 59 -215 59 -261 0 -31 -16 -30 -71 4 -55 35
-95 82 -104 121 -7 35 7 94 35 139 25 41 56 40 81 -3z m3472 -127 c12 -6 57
-38 100 -72 l77 -61 -67 -17 c-96 -23 -120 -22 -148 7 -21 20 -25 34 -25 83 0
75 12 87 63 60z m-5094 -29 c42 -15 58 -44 32 -59 -29 -15 -83 -12 -109 6 -26
18 -27 27 -6 48 18 19 39 20 83 5z m-1064 -25 c-54 -45 -186 -105 -245 -110
-70 -7 -134 12 -138 42 -2 17 7 25 47 43 65 28 187 49 286 50 l80 0 -30 -25z
m5405 6 c0 -17 -88 -68 -138 -79 -84 -20 -233 -31 -417 -30 -203 0 -258 7
-289 38 l-21 22 24 20 c36 30 143 26 284 -11 165 -43 186 -41 402 24 84 26
155 33 155 16z m-4643 -51 c98 -14 146 -32 141 -56 -5 -30 -74 -55 -172 -65
-189 -17 -265 -29 -386 -58 -314 -76 -538 -31 -370 75 137 86 535 139 787 104z
m-1419 -124 c81 -26 137 -57 156 -87 8 -14 6 -22 -11 -39 -43 -44 -162 -34
-274 22 -105 52 -144 102 -101 129 26 16 139 4 230 -25z m30 -415 c5 -40 -20
-64 -62 -63 -38 1 -76 26 -76 49 0 25 43 45 90 42 40 -3 45 -6 48 -28z"/>
<path d="M9580 13335 c-21 -23 -22 -30 -17 -107 11 -154 56 -279 109 -297 55
-19 140 -9 183 23 19 13 18 16 -14 102 -96 255 -189 355 -261 279z"/>
<path d="M6434 8932 c-6 -4 -16 -17 -23 -29 -33 -63 151 -348 344 -531 95 -91
112 -126 120 -257 8 -121 27 -195 66 -257 92 -144 268 -230 499 -245 87 -5
150 0 345 27 39 6 174 13 300 16 246 6 363 18 371 39 10 25 -30 80 -130 180
-130 131 -157 144 -330 156 -192 13 -329 31 -345 43 -13 10 -12 78 5 206 9 75
-4 84 -133 90 -101 5 -115 9 -218 53 -245 105 -518 272 -647 398 -46 44 -100
89 -120 100 -38 19 -84 25 -104 11z"/>
<path d="M21535 8898 c-51 -18 -94 -57 -142 -129 -52 -80 -136 -152 -233 -203
-155 -80 -245 -90 -702 -74 -310 10 -339 10 -363 -6 -20 -13 -25 -25 -25 -57
0 -74 23 -91 145 -104 122 -13 209 -44 319 -114 91 -57 168 -82 267 -88 108
-7 197 17 287 77 116 78 412 408 507 566 41 68 45 106 13 128 -26 18 -31 18
-73 4z"/>
<path d="M22994 8675 c-128 -28 -260 -95 -412 -210 -129 -97 -231 -204 -272
-284 -83 -166 -181 -462 -207 -626 -23 -151 -7 -657 28 -870 19 -115 54 -208
174 -455 147 -305 167 -353 173 -426 l5 -62 -49 -47 c-119 -115 -360 -267
-709 -448 -137 -71 -306 -160 -375 -197 -244 -133 -466 -229 -915 -395 -438
-163 -731 -287 -1446 -616 -464 -213 -910 -437 -1191 -598 -528 -301 -966
-516 -1418 -694 -241 -95 -410 -149 -672 -217 -128 -34 -262 -69 -298 -80
-172 -50 -453 -96 -780 -127 -264 -25 -1090 -25 -1365 0 -460 43 -709 89
-1199 223 -1081 295 -2562 816 -4106 1444 -234 95 -497 196 -585 225 -178 58
-317 113 -605 237 -107 47 -231 97 -275 113 -44 15 -173 72 -288 125 -489 230
-705 377 -1115 755 -19 17 19 314 58 462 35 132 52 177 125 333 132 286 284
781 300 980 13 160 -23 361 -96 535 -72 174 -228 355 -360 418 -117 57 -245
88 -384 94 -235 11 -337 -37 -697 -324 -468 -374 -844 -609 -1182 -739 -117
-45 -211 -69 -370 -95 -147 -23 -251 -46 -277 -59 -130 -70 30 -959 307 -1703
24 -65 44 -126 44 -136 0 -46 -147 -156 -625 -466 -434 -281 -688 -474 -923
-700 -298 -287 -349 -443 -392 -1200 -22 -388 -55 -587 -119 -719 -97 -199
-230 -352 -368 -424 -89 -46 -123 -80 -123 -122 0 -32 15 -47 61 -60 89 -26
396 85 646 234 138 81 235 158 364 286 192 191 295 342 474 700 59 118 130
255 158 305 101 179 183 285 209 269 6 -4 7 -44 3 -103 -15 -213 77 -502 327
-1026 228 -476 292 -630 322 -779 23 -109 21 -269 -6 -403 -25 -127 -20 -143
38 -143 69 0 121 69 279 374 l98 189 8 761 c7 702 16 950 38 1033 22 81 194
270 330 362 84 57 212 117 292 136 172 40 281 2 593 -205 257 -171 662 -398
992 -556 197 -95 265 -122 347 -139 162 -35 817 -235 1058 -324 75 -28 331
-116 569 -195 237 -80 502 -174 588 -208 206 -81 618 -288 1082 -543 926 -511
1572 -809 2215 -1023 204 -68 295 -94 656 -187 141 -36 321 -86 400 -111 516
-161 1094 -234 1759 -221 324 6 417 14 760 63 800 113 1281 242 1819 486 212
96 375 180 841 436 552 303 906 491 1265 672 687 346 1074 512 2490 1072 354
140 1190 513 1460 652 390 200 634 360 1150 755 159 121 242 147 330 100 104
-55 346 -272 587 -525 383 -403 447 -537 663 -1393 152 -602 244 -791 386
-791 56 0 60 60 18 290 -42 236 -38 300 41 619 76 306 137 645 155 851 8 104
34 245 48 264 11 15 16 14 49 -9 51 -34 135 -140 155 -195 9 -25 30 -65 47
-89 117 -174 572 -634 732 -740 25 -16 76 -39 114 -50 39 -12 140 -48 225 -81
228 -87 319 -107 357 -78 21 16 24 33 15 79 -8 41 -56 91 -137 142 -219 139
-453 588 -740 1427 -186 541 -260 687 -496 981 -218 272 -508 579 -804 852
-102 94 -187 173 -189 174 -3 2 10 115 27 251 46 347 55 499 49 782 -5 236
-22 394 -48 441 -15 28 -129 92 -484 271 -439 221 -624 333 -804 488 -263 225
-536 398 -733 464 -86 29 -166 33 -264 11z m61 -320 c119 -53 255 -183 280
-268 35 -114 28 -744 -10 -937 -16 -79 -73 -210 -107 -247 -44 -47 -115 -21
-179 64 -92 121 -234 369 -271 473 -22 62 -23 77 -23 355 0 319 10 400 63 498
30 56 40 65 89 83 45 16 90 10 158 -21z m476 -63 c24 -16 77 -59 117 -96 199
-182 683 -502 1022 -673 91 -46 180 -98 198 -116 73 -70 92 -149 92 -387 0
-619 -101 -1116 -309 -1530 -93 -186 -164 -288 -304 -440 -43 -47 -104 -119
-135 -160 -66 -88 -126 -147 -277 -274 -489 -414 -1012 -745 -1760 -1116 -444
-220 -677 -319 -1049 -446 -985 -336 -2742 -1140 -3451 -1579 -266 -164 -406
-244 -645 -364 -483 -244 -981 -449 -1372 -566 -619 -185 -1703 -300 -2403
-255 -692 45 -1945 387 -2865 780 -283 121 -388 172 -751 362 -1006 528 -1494
768 -1926 944 -588 240 -730 290 -1102 385 -682 175 -1391 456 -1921 761 -336
193 -658 412 -798 543 -191 178 -764 955 -1026 1392 -81 136 -157 342 -245
669 -122 452 -145 665 -77 719 14 12 81 41 149 64 363 129 904 390 1102 531
140 101 174 110 201 58 14 -27 19 -79 25 -293 10 -332 39 -542 109 -769 64
-211 113 -310 214 -431 36 -43 109 -140 163 -214 156 -218 204 -273 442 -511
560 -559 902 -775 1581 -1000 457 -152 1080 -382 1930 -712 860 -334 1331
-504 2340 -841 907 -304 1268 -412 1785 -537 339 -82 452 -100 830 -132 204
-17 1002 -17 1195 0 366 33 890 123 1165 201 533 151 917 328 2210 1019 536
286 1037 540 1285 649 319 141 1372 572 1790 733 289 112 637 280 1010 490
291 163 376 227 566 421 348 358 652 866 810 1352 93 289 137 630 114 889 -13
152 -34 239 -89 372 -44 106 -48 122 -28 129 25 11 44 6 88 -21z m-18687 -237
c124 -32 208 -75 272 -139 72 -72 97 -133 96 -237 -1 -241 -229 -543 -587
-781 -190 -126 -288 -158 -313 -103 -23 50 -32 205 -32 545 l0 345 86 105
c218 266 300 311 478 265z m17717 -17 c10 -364 19 -511 35 -573 10 -42 57
-147 114 -260 150 -294 166 -354 68 -253 -68 70 -189 235 -254 348 l-49 84 1
196 c0 199 15 325 50 433 17 50 34 62 35 25z m-17271 -793 c0 -52 -102 -212
-239 -376 -102 -122 -167 -172 -329 -253 -72 -36 -223 -86 -261 -86 -85 0 -30
67 144 174 172 105 255 172 424 344 223 226 261 255 261 197z m20056 -1674
c88 -57 264 -213 398 -352 353 -366 600 -771 756 -1239 82 -245 130 -466 130
-595 0 -72 -9 -90 -42 -82 -69 18 -190 126 -440 395 -387 416 -527 550 -622
597 -63 32 -137 34 -165 6 -31 -31 -20 -60 82 -221 69 -108 131 -245 152 -334
27 -112 40 -359 26 -502 -19 -206 -54 -247 -132 -153 -137 163 -373 436 -508
588 -425 476 -437 493 -429 676 6 126 23 167 112 266 123 135 261 360 439 714
85 168 153 275 176 275 4 0 34 -17 67 -39z m-22531 -854 c66 -98 165 -240 221
-315 110 -151 200 -292 209 -333 11 -44 -43 -132 -165 -274 -160 -186 -269
-418 -319 -677 -19 -100 -29 -194 -51 -483 -6 -77 -17 -195 -25 -262 -8 -67
-15 -137 -15 -156 0 -20 -7 -43 -16 -52 -15 -15 -18 -14 -43 1 -136 86 -421
695 -471 1007 -18 109 -9 242 21 303 13 27 69 96 128 159 58 60 122 130 142
155 66 81 86 141 52 154 -60 23 -393 -151 -590 -309 -127 -102 -249 -250 -473
-575 -212 -307 -361 -489 -393 -477 -26 10 -45 57 -66 168 -58 297 -70 556
-32 713 26 107 85 225 162 321 116 145 400 398 589 525 305 205 967 594 1000
588 8 -2 69 -83 135 -181z"/>
<path d="M19567 3731 c-119 -39 -214 -125 -238 -215 -26 -94 11 -206 83 -253
58 -39 155 -43 309 -13 146 28 174 28 205 -1 64 -60 -14 -161 -154 -199 -58
-15 -103 0 -154 52 -43 44 -53 44 -120 1 -53 -33 -52 -68 4 -129 68 -74 106
-89 218 -88 110 0 189 27 275 92 75 57 109 119 113 208 5 86 -9 133 -51 181
-70 79 -172 92 -387 47 -136 -28 -161 -25 -181 20 -18 39 15 85 90 123 87 45
120 44 177 -9 l46 -42 56 29 c46 24 58 35 60 58 4 37 -35 89 -95 124 -62 36
-171 42 -256 14z"/>
<path d="M7670 3184 c-162 -168 -295 -313 -295 -322 0 -18 94 -72 126 -72 9 0
52 38 94 85 43 47 82 85 87 85 5 0 65 -24 134 -52 l125 -53 -3 -125 -3 -125
55 -28 c30 -15 66 -26 80 -25 l25 3 6 145 c4 80 7 278 8 441 l1 296 -61 27
c-33 14 -66 26 -72 25 -7 0 -145 -138 -307 -305z m284 -46 c-4 -68 -8 -124 -9
-126 -3 -3 -146 56 -154 63 -3 4 158 183 167 184 2 1 0 -54 -4 -121z"/>
<path d="M19013 3446 c-29 -14 -54 -33 -57 -44 -5 -14 25 -87 98 -238 58 -120
104 -220 102 -222 -3 -2 -120 64 -261 147 -164 97 -266 151 -283 151 -15 -1
-47 -11 -72 -23 -33 -16 -46 -29 -48 -47 -4 -31 325 -717 350 -734 13 -8 30
-4 73 17 31 15 58 34 62 42 3 9 -43 116 -105 246 -84 174 -106 227 -89 216 46
-29 505 -297 520 -303 9 -3 43 7 76 22 52 23 61 31 61 53 0 30 -325 710 -348
729 -20 16 -18 16 -79 -12z"/>
<path d="M8493 3248 c-15 -19 -313 -721 -313 -736 0 -14 94 -62 121 -62 24 0
29 10 94 163 32 75 62 137 67 137 5 0 38 -13 74 -30 58 -26 67 -34 86 -77 11
-26 33 -119 48 -206 15 -87 29 -159 31 -161 11 -11 124 -56 141 -56 10 0 21 7
24 15 10 25 -45 324 -70 386 -6 13 3 17 48 22 126 13 207 105 208 238 1 80
-30 140 -95 184 -51 35 -413 195 -440 195 -8 0 -19 -6 -24 -12z m231 -229
c126 -56 166 -89 166 -141 0 -20 -10 -40 -30 -60 -28 -27 -36 -30 -78 -26 -43
5 -234 78 -256 98 -5 5 1 31 14 62 13 29 29 68 37 86 7 17 17 32 22 32 5 0 61
-23 125 -51z"/>
<path d="M18084 3004 c-120 -58 -239 -115 -264 -127 -29 -14 -46 -29 -48 -43
-4 -26 331 -724 353 -737 11 -6 51 8 133 47 286 133 430 207 436 222 3 9 -5
41 -18 70 -20 44 -29 54 -49 54 -14 0 -113 -43 -221 -94 l-196 -95 -44 87 -44
87 180 85 c118 56 183 92 190 106 15 32 -28 118 -63 122 -16 2 -90 -28 -201
-81 l-175 -84 -37 75 c-20 41 -36 75 -34 76 2 2 92 45 200 97 220 105 217 102
177 182 -20 39 -35 56 -50 57 -3 0 -104 -48 -225 -106z"/>
<path d="M9277 2898 c-33 -53 -309 -718 -304 -731 6 -15 283 -137 357 -157 77
-21 161 -16 224 13 153 70 276 295 264 482 -9 128 -70 220 -185 278 -79 40
-311 137 -327 137 -9 0 -22 -10 -29 -22z m306 -264 c45 -30 77 -91 77 -149 0
-22 -11 -71 -25 -110 -48 -136 -135 -225 -219 -225 -33 0 -246 75 -246 87 0 5
199 473 206 485 6 9 158 -56 207 -88z"/>
<path d="M17413 2676 c-43 -14 -378 -172 -400 -189 -7 -5 -13 -18 -13 -29 0
-28 336 -720 354 -730 11 -6 35 0 76 18 50 22 60 31 60 52 0 13 -29 85 -65
160 -36 74 -64 136 -62 138 7 7 133 64 142 64 21 0 135 -59 237 -124 61 -38
117 -66 132 -66 15 0 53 14 86 30 49 24 60 35 60 55 0 20 -21 37 -131 104 -73
44 -151 88 -174 98 l-42 17 31 50 c28 44 31 58 31 126 0 68 -3 82 -30 125 -17
27 -50 63 -73 79 -36 25 -54 31 -110 33 -37 2 -86 -3 -109 -11z m123 -180 c68
-68 40 -113 -127 -196 l-119 -60 -41 81 c-22 45 -37 85 -32 90 15 15 248 119
267 119 10 0 33 -15 52 -34z"/>
<path d="M10063 2568 c-25 -40 -314 -732 -310 -743 8 -18 552 -249 572 -241
19 7 58 89 53 113 -2 10 -76 47 -208 104 -113 49 -209 90 -213 91 -9 4 66 181
79 185 5 2 92 -32 193 -76 102 -43 190 -77 197 -74 18 7 53 105 44 123 -5 9
-92 51 -194 94 -173 73 -184 80 -176 100 40 101 61 141 70 138 6 -1 96 -38
200 -82 104 -44 196 -80 205 -80 18 0 57 83 53 114 -2 17 -53 42 -263 133
-143 62 -268 113 -277 113 -9 0 -20 -6 -25 -12z"/>
<path d="M16731 2347 c-24 -12 -49 -29 -54 -38 -8 -13 28 -97 165 -380 197
-409 182 -392 273 -341 40 22 50 33 48 52 0 14 -77 183 -170 375 -188 391
-176 375 -262 332z"/>
<path d="M10646 1906 c-86 -200 -156 -372 -156 -381 0 -23 108 -71 129 -58 9
6 61 114 115 242 55 127 101 229 104 227 2 -3 31 -145 63 -317 32 -172 60
-313 61 -314 2 -1 25 -12 52 -24 56 -24 79 -26 93 -8 25 32 313 725 308 739
-8 20 -106 61 -126 53 -8 -3 -60 -111 -114 -240 -55 -128 -103 -231 -106 -227
-4 4 -18 72 -33 152 -15 80 -41 219 -58 309 l-31 163 -51 24 c-93 43 -75 67
-250 -340z"/>
<path d="M16473 2227 c-41 -20 -43 -23 -43 -66 0 -26 11 -165 25 -310 14 -145
25 -273 25 -285 0 -15 -61 40 -223 202 -247 247 -239 242 -328 197 -85 -44
-86 -42 263 -368 200 -187 314 -287 328 -287 11 0 43 11 70 25 l50 25 0 55 c0
53 -44 665 -56 778 -6 56 -6 57 -37 56 -18 0 -51 -10 -74 -22z"/>
<path d="M11599 1842 c-74 -38 -111 -93 -117 -171 -8 -111 27 -163 195 -293
138 -106 158 -145 104 -199 -23 -22 -39 -29 -68 -29 -65 0 -132 29 -186 81
l-49 47 4 69 3 68 -37 18 c-20 10 -52 21 -71 24 -33 5 -35 3 -47 -31 -16 -48
-16 -133 0 -182 54 -164 298 -284 472 -232 59 17 133 88 152 145 43 127 1 216
-158 335 -159 119 -185 160 -134 208 45 42 173 9 231 -60 24 -28 28 -41 26
-87 -1 -29 2 -57 7 -62 11 -10 102 -41 120 -41 17 0 34 63 34 125 0 122 -103
234 -259 279 -86 25 -159 21 -222 -12z"/>
<path d="M14600 1631 l-75 -6 3 -380 c1 -209 5 -394 7 -412 3 -18 13 -34 23
-37 9 -3 103 -2 207 3 214 10 270 24 343 87 82 70 129 218 119 372 -13 199
-102 328 -253 367 -59 15 -216 18 -374 6z m333 -155 c88 -32 120 -91 125 -238
5 -123 -11 -189 -56 -230 -47 -44 -72 -52 -194 -56 l-118 -4 0 138 c0 77 -3
196 -7 266 l-6 126 24 5 c54 10 196 5 232 -7z"/>
<path d="M14007 1619 c-141 -4 -265 -10 -273 -13 -15 -6 -16 -37 -10 -324 8
-392 14 -499 30 -505 7 -3 147 -1 311 3 230 7 300 11 306 22 12 18 11 95 -1
119 -10 18 -20 18 -239 12 l-228 -6 -6 39 c-4 21 -7 67 -7 100 l0 61 38 7 c20
3 109 6 198 6 194 0 196 1 192 85 l-3 60 -211 0 -212 0 -6 84 c-4 46 -4 86 -1
90 4 3 102 8 218 11 117 3 218 9 225 13 7 5 12 31 12 67 0 62 -14 82 -57 78
-10 0 -134 -5 -276 -9z"/>
<path d="M13110 1597 c-123 -34 -191 -118 -191 -231 0 -66 14 -103 59 -149 42
-44 95 -65 252 -102 127 -30 163 -47 179 -82 16 -35 14 -48 -13 -80 -61 -73
-243 -69 -309 5 -10 11 -24 40 -32 64 l-13 43 -67 -2 c-77 -1 -88 -10 -79 -63
17 -96 75 -174 162 -217 53 -26 65 -28 182 -28 139 0 183 13 252 74 124 108
102 313 -41 385 -26 14 -112 41 -191 60 -78 19 -150 42 -161 52 -28 25 -33 52
-14 80 23 36 74 54 148 54 85 0 126 -26 146 -93 14 -45 16 -47 50 -47 20 0 53
3 74 6 33 6 37 10 37 37 0 88 -63 178 -152 217 -64 28 -207 37 -278 17z"/>
<path d="M20194 8130 c-83 -12 -176 -47 -244 -93 -75 -49 -112 -98 -108 -142
5 -53 32 -59 318 -66 140 -4 271 -12 291 -18 19 -6 60 -29 89 -51 70 -52 117
-66 165 -46 44 19 60 55 44 103 -26 79 -219 242 -344 291 -61 24 -143 32 -211
22z"/>
<path d="M17380 4479 c-51 -13 -139 -22 -275 -29 -209 -10 -290 -25 -325 -60
-25 -25 -36 -85 -21 -117 l12 -26 97 9 c201 17 230 12 332 -62 43 -31 65 -27
139 30 122 94 166 106 219 61 16 -13 41 -29 55 -34 56 -22 250 -33 508 -29
294 3 299 5 299 64 0 90 -138 134 -444 140 -196 4 -266 12 -364 43 -91 29
-148 32 -232 10z"/>
<path d="M13600 4209 c-35 -15 -60 -39 -60 -60 0 -19 51 -66 89 -81 14 -6 75
-23 134 -39 169 -45 255 -93 452 -252 136 -111 196 -140 279 -139 79 2 167 25
230 62 113 65 175 90 276 110 131 26 194 55 198 92 4 32 -25 62 -88 90 -78 36
-120 29 -268 -41 -165 -78 -248 -97 -347 -81 -85 13 -181 59 -295 142 -190
137 -273 177 -395 189 -44 4 -102 10 -130 13 -27 3 -61 1 -75 -5z"/>
<path d="M11357 4019 c-78 -23 -83 -98 -8 -119 40 -11 236 -40 272 -40 37 0
123 -44 206 -105 116 -85 275 -126 360 -94 15 5 40 22 54 35 21 20 43 28 100
35 79 10 116 29 137 72 9 19 10 31 1 51 -22 47 -94 56 -291 34 -137 -15 -205
-5 -325 50 -132 61 -220 82 -353 87 -66 3 -131 0 -153 -6z"/>
<path d="M12624 3877 c-68 -59 17 -179 96 -137 28 15 60 69 60 102 0 58 -103
80 -156 35z"/>
</g>
</svg>
